<?xml version="1.0" standalone="no"?>
<!DOCTYPE svg PUBLIC "-//W3C//DTD SVG 20010904//EN"
 "http://www.w3.org/TR/2001/REC-SVG-20010904/DTD/svg10.dtd">
<svg version="1.0" xmlns="http://www.w3.org/2000/svg"
 width="512" height="512" viewBox="0 0 300.000000 300.000000"
 preserveAspectRatio="xMidYMid meet">
<metadata>
Created by potrace 1.10, written by Peter Selinger 2001-2011
</metadata>
<g transform="translate(0.000000,300.000000) scale(0.100000,-0.100000)"
fill="#000000" stroke="none">
<path d="M1418 1922 c-33 -30 -239 -272 -335 -396 l-23 -29 -38 26 c-104 69
-270 77 -303 15 -13 -25 -3 -36 19 -20 59 42 150 40 238 -4 30 -15 58 -32 61
-37 11 -18 -24 -37 -92 -50 -41 -7 -70 -18 -73 -26 -4 -11 3 -13 34 -7 22 3
50 9 64 13 22 6 19 -1 -25 -53 -166 -199 -235 -260 -287 -252 -21 3 -39 28
-53 72 -4 14 -9 16 -16 9 -16 -16 7 -79 34 -98 52 -37 115 -6 223 107 43 46
104 117 134 156 49 65 58 72 85 70 25 -3 34 -12 57 -58 39 -78 53 -171 39
-251 -17 -98 17 -113 39 -17 17 70 109 340 121 353 6 6 25 5 51 -2 24 -6 45
-9 47 -7 11 11 -29 35 -57 36 -18 1 -32 4 -32 8 0 4 18 51 40 106 68 166 120
313 120 338 0 39 -27 39 -72 -2z m-48 -239 l-82 -210 -91 -10 c-67 -7 -95 -7
-104 1 -10 9 14 45 107 161 151 188 243 291 247 278 2 -6 -33 -105 -77 -220z
m-115 -300 c-13 -32 -31 -85 -41 -118 l-17 -60 -13 61 c-6 34 -24 84 -38 112
l-26 51 33 4 c17 2 53 5 79 5 l47 2 -24 -57z"/>
<path d="M1833 1827 c-21 -20 -65 -76 -97 -126 l-59 -91 -64 0 -64 0 16 30 c9
16 29 53 45 80 35 60 37 70 11 70 -14 0 -32 -25 -68 -95 -46 -92 -49 -95 -83
-96 -58 -2 -85 -13 -88 -37 -2 -12 1 -22 7 -22 6 0 11 4 11 9 0 8 81 33 87 27
2 -1 -20 -55 -47 -120 -80 -188 -97 -269 -65 -296 25 -20 59 -3 119 60 32 33
58 60 59 60 1 0 1 -20 -1 -45 -7 -88 44 -101 116 -30 46 47 57 54 49 33 -8
-22 13 -48 38 -48 17 0 43 18 80 56 l55 56 0 -41 c0 -45 21 -64 55 -51 28 11
105 94 148 158 l35 53 6 -36 c4 -20 9 -42 11 -48 3 -7 -14 -25 -36 -42 -83
-61 -102 -135 -34 -135 63 0 125 82 109 145 -5 18 8 28 90 71 53 27 96 53 96
58 0 15 -54 -4 -124 -45 -38 -21 -70 -38 -71 -37 -1 2 -7 25 -14 51 -10 43
-10 51 9 77 25 35 26 60 1 60 -22 0 -51 -40 -51 -72 0 -28 -119 -189 -160
-218 -27 -19 -31 -20 -37 -5 -3 10 3 43 13 74 27 80 27 81 11 81 -7 0 -36 -27
-63 -61 -44 -56 -113 -119 -128 -119 -3 0 -6 9 -6 20 0 50 83 167 141 199 39
23 65 20 55 -5 -7 -19 14 -30 25 -13 14 23 10 38 -15 54 -15 10 -33 14 -50 9
-36 -9 -107 -74 -159 -147 -91 -126 -167 -179 -167 -115 1 68 22 113 91 191
137 158 254 354 247 414 -5 42 -38 42 -85 0z m29 -92 c-43 -91 -212 -333 -234
-335 -4 0 9 35 28 78 20 42 38 83 41 90 3 7 11 11 18 8 19 -7 27 5 14 20 -14
17 41 109 109 185 58 65 67 48 24 -46z m-210 -182 c-11 -21 -36 -81 -56 -134
-32 -83 -46 -105 -105 -167 -68 -72 -101 -89 -101 -53 0 34 41 153 92 268 55
123 48 117 151 121 l37 2 -18 -37z m494 -309 c-7 -25 -63 -67 -78 -58 -15 10
-8 24 35 71 44 47 57 43 43 -13z"/>
</g>
</svg>
